<svg width="180" height="180" viewBox="0 0 180 180" fill="none" xmlns="http://www.w3.org/2000/svg">
  <defs>
    <linearGradient id="bgGradient" x1="0%" y1="0%" x2="100%" y2="100%">
      <stop offset="0%" style="stop-color:#3b82f6;stop-opacity:0.1" />
      <stop offset="100%" style="stop-color:#8b5cf6;stop-opacity:0.1" />
    </linearGradient>
    <linearGradient id="lineGradient" x1="0%" y1="0%" x2="100%" y2="0%">
      <stop offset="0%" style="stop-color:#3b82f6;stop-opacity:1" />
      <stop offset="100%" style="stop-color:#8b5cf6;stop-opacity:1" />
    </linearGradient>
  </defs>
  <rect width="180" height="180" rx="40" fill="url(#bgGradient)"/>
  <rect x="5" y="5" width="170" height="170" rx="35" fill="none" stroke="#3b82f6" stroke-width="3" opacity="0.3"/>
  <text x="90" y="50" font-family="-apple-system, BlinkMacSystemFont, 'Segoe UI', sans-serif" font-size="24" font-weight="700" fill="#171717" text-anchor="middle" letter-spacing="4">CSV</text>
  <line x1="40" y1="80" x2="140" y2="80" stroke="#e5e5e5" stroke-width="2"/>
  <line x1="40" y1="100" x2="140" y2="100" stroke="#e5e5e5" stroke-width="2"/>
  <line x1="40" y1="120" x2="140" y2="120" stroke="#e5e5e5" stroke-width="2"/>
  <line x1="40" y1="75" x2="40" y2="130" stroke="#737373" stroke-width="3"/>
  <line x1="40" y1="130" x2="140" y2="130" stroke="#737373" stroke-width="3"/>
  <path d="M 48 115 L 64 105 L 80 90 L 96 95 L 112 85 L 128 77" fill="none" stroke="url(#lineGradient)" stroke-width="4" stroke-linecap="round" stroke-linejoin="round"/>
  <circle cx="48" cy="115" r="5" fill="#3b82f6"/>
  <circle cx="64" cy="105" r="5" fill="#4f86f7"/>
  <circle cx="80" cy="90" r="5" fill="#638bf8"/>
  <circle cx="96" cy="95" r="5" fill="#778ff9"/>
  <circle cx="112" cy="85" r="5" fill="#8b5cf6"/>
  <circle cx="128" cy="77" r="5" fill="#9f70f7"/>
  <circle cx="48" cy="115" r="5" fill="#3b82f6" opacity="0.3"/>
  <circle cx="64" cy="105" r="5" fill="#4f86f7" opacity="0.3"/>
  <circle cx="80" cy="90" r="5" fill="#638bf8" opacity="0.3"/>
  <circle cx="96" cy="95" r="5" fill="#778ff9" opacity="0.3"/>
  <circle cx="112" cy="85" r="5" fill="#8b5cf6" opacity="0.3"/>
  <circle cx="128" cy="77" r="5" fill="#9f70f7" opacity="0.3"/>
  <text x="90" y="157" font-family="-apple-system, BlinkMacSystemFont, 'Segoe UI', sans-serif" font-size="20" font-weight="700" fill="#171717" text-anchor="middle" letter-spacing="4">PLOT</text>
</svg>
